<svg id="图层_1" data-name="图层 1" xmlns="http://www.w3.org/2000/svg" viewBox="0 0 991.17 1028.19"><path d="M978.43,332.63c-1.2,9.4-6.24,12.75-10.45,16.44-18.3,16.05-21.78,35.57-14.62,58.06a154.69,154.69,0,0,0,18.17,37.49c29.87,46,76.94,64.7,126.34,78.8,31.63,9,64.51,11.36,97.35,12.82,5.49.24,14.44-2.76,12.78,10.37-55.79,32.81-115.47,57.76-182.59,71.44,12.8,13.47,23.56,24.59,34.1,35.94,6.64,7.14,13,7.87,21.49,2.29,25.29-16.66,51.09-32.55,76.53-49,6-3.89,11-7.67,12.39-16.71,2.65-17.79,13.61-21.42,26.4-9.21,48,45.81,87.42,97.79,108.8,161.41,23.45,69.81-.11,116.88-69.19,141.37-81.38,28.86-164.72,36.57-249.58,20.68-53.48-10-105.07-25.94-148.68-60.85-53.82-43.07-99-95.3-150.31-141.16-61.05-54.58-118.23-113.49-176.93-170.69-8.46-8.24-17.05-17.48-29.62-12.51-11.93,4.72-14.29,17.1-15.79,28.72A286.73,286.73,0,0,0,467.45,639c3.39,17.8,10.47,34.81,24,47.67Q620.43,809.47,749.65,932c9,8.54,17.92,16.64,28.71,22.89,63.67,36.86,131.06,64.1,203.58,77.23,120.37,21.8,236.07,7.18,349.13-40.56,71.43-30.16,105-85.73,119.24-156.46,11.36-56.36-7.63-109-29.5-159.53-21.55-49.79-55.8-92-86.44-136.5C1309.89,503.51,1266,474,1285,416.71c-26.5,3.39-48.91-5.39-72.19-8.68-46.46-6.55-75.54,23.75-69.75,70.55,1.27,10.23,8,19.87,4.25,30.67-29.34,4.35-60.5-.11-75.64-13.43-33.81-29.75-66.76-60.48-100-90.89-12.26-11.22-13-22.41-3-36.71,10.12-14.47,25.69-24.93,32.81-43-25.2-18-51.12-11.1-76.52-5.49-37.07,8.17-69.91-14.33-77.29-52.38-6-31-4-62.17-5.17-93.29-.72-18.55-5.22-21.3-23.08-16.81-19.52,4.9-36.07,15.53-52,27.22-9.44,6.94-16.62,6.53-25.84-1.55C685,133.23,634.22,77.32,577.51,27.64,553.8,6.87,538.6,8.54,530,39.19c-9.77,34.68-6.73,69.89,2.74,104.43,1.94,7.1,6.25,13.28,11.74,18.52C593.71,209,644,254.88,691,304c7.38,7.7,16.54,12.63,27.34,18.32,13-64.45,32.29-122.95,104.09-148.87,5.67,29.66,2.19,55.08,3.58,80.17,3.83,69.29,51.31,101.34,115,77C953.82,325.69,966,323.74,978.43,332.63Z" transform="translate(-462.54 -13.81)"/><path d="M718.26,513.62c-4.71-7.58-6.83-10.95-8.9-14.34-12.57-20.57-9.72-26.79,13.81-29.49,9.74-1.12,19.78-.67,29.27-2.78,19.21-4.29,22.57-13.88,10.11-29.51-12.28-15.42-27.25-30-32.27-48.9-8.22-30.88-28.16-51.05-50.08-72.4-41.59-40.51-84.48-79.62-126.19-120a171.72,171.72,0,0,0-18.74-15.86c-11.29-8.15-21.45-7.08-28.86,5.58-16.55,28.27-23.43,58.55-20.78,91.43,1.88,23.31,19.77,35.28,33.64,49.17,53.15,53.23,107.64,105.13,161.49,157.66C690.71,493.91,700.55,503.65,718.26,513.62Z" transform="translate(-462.54 -13.81)"/><path d="M1056,672c-29-26.43-48.85-58.17-89.27-61.44-38.92-3.16-72.4-18.75-100.77-45.81A91.5,91.5,0,0,0,841.87,548c-17.28-8-36.4-.71-46.22,16.18-10.32,17.76-8.49,26.38,12.09,40.09,10.46,7,18.75,15.71,27.34,24.37,34,34.25,68.11,68.29,104.59,99.91,6.11,5.29,11.44,12.64,21,6.31C991.25,714.69,1021.83,694.52,1056,672Z" transform="translate(-462.54 -13.81)"/><path d="M978.43,332.63c-12.43-8.89-24.61-6.94-37.4-2-63.68,24.38-111.16-7.67-115-77-1.39-25.09,2.09-50.51-3.58-80.17-71.8,25.92-91.12,84.42-104.09,148.87-10.8-5.69-20-10.62-27.34-18.32C644,254.88,593.71,209,544.45,162.14c-5.49-5.24-9.8-11.42-11.74-18.52C523.24,109.08,520.2,73.87,530,39.19,538.6,8.54,553.8,6.87,577.51,27.64,634.22,77.32,685,133.23,741.63,182.92c9.22,8.08,16.4,8.49,25.84,1.55,15.89-11.69,32.44-22.32,52-27.22,17.86-4.49,22.36-1.74,23.08,16.81,1.2,31.12-.84,62.31,5.17,93.29,7.38,38,40.22,60.55,77.29,52.38,25.4-5.61,51.32-12.53,76.52,5.49-7.12,18.07-22.69,28.53-32.81,43-10,14.3-9.23,25.49,3,36.71,33.24,30.41,66.19,61.14,100,90.89,15.14,13.32,46.3,17.78,75.64,13.43,3.78-10.8-3-20.44-4.25-30.67-5.79-46.8,23.29-77.1,69.75-70.55,23.28,3.29,45.69,12.07,72.19,8.68-19,57.28,24.85,86.8,49.33,122.36,30.64,44.49,64.89,86.71,86.44,136.5,21.87,50.55,40.86,103.17,29.5,159.53-14.26,70.73-47.81,126.3-119.24,156.46-113.06,47.74-228.76,62.36-349.13,40.56C909.42,1019,842,991.75,778.36,954.89c-10.79-6.25-19.74-14.35-28.71-22.89Q620.74,809.14,491.43,686.71c-13.51-12.86-20.59-29.87-24-47.67A286.73,286.73,0,0,1,465,548.36c1.5-11.62,3.86-24,15.79-28.72,12.57-5,21.16,4.27,29.62,12.51,58.7,57.2,115.88,116.11,176.93,170.69C738.67,748.7,783.85,800.93,837.67,844c43.61,34.91,95.2,50.83,148.68,60.85,84.86,15.89,168.2,8.18,249.58-20.68,69.08-24.49,92.64-71.56,69.19-141.37-21.38-63.62-60.81-115.6-108.8-161.41-12.79-12.21-23.75-8.58-26.4,9.21-1.36,9-6.36,12.82-12.39,16.71-25.44,16.42-51.24,32.31-76.53,49-8.47,5.58-14.85,4.85-21.49-2.29-10.54-11.35-21.3-22.47-34.1-35.94,67.12-13.68,126.8-38.63,182.59-71.44,1.66-13.13-7.29-10.13-12.78-10.37-32.84-1.46-65.72-3.78-97.35-12.82-49.4-14.1-96.47-32.78-126.34-78.8a154.69,154.69,0,0,1-18.17-37.49c-7.16-22.49-3.68-42,14.62-58.06C972.19,345.38,977.23,342,978.43,332.63Z" transform="translate(-462.54 -13.81)"/><path d="M780.21,608.47c38.73,27.62,69,62.19,101.32,94.55,12.1,12.11,23.53,24.81,38.25,34.26,9.7,6.22,13.77,15.3-.59,21.83-25.56,11.63-47.62,28.86-70.87,44.12-11.37,7.46-19.58,7.46-30.48-1.54-10.69-8.84-21.4-17.49-31.35-27.24C729.19,718.25,672.83,661,613.75,606.71c-41-37.71-81.61-75.54-118.31-117.53-9-10.3-16-21.41-17.82-34.32-4-28.48-3.4-57.32-.48-85.87,1-10.22,4.87-21.42,16.57-25.56,12-4.26,19.88,3,27.81,10.84,54.28,53.41,106.57,109.16,164,158.91,32,27.72,53.46,55.69,51.65,98.69-.13,3.18,1.07,6.47,1.92,9.63,1.88,7,2.84,15.58,11.82,16.67,7.52.92,10.77-6.43,14.81-11.38C770.36,621.15,772.24,613.44,780.21,608.47Z" transform="translate(-462.54 -13.81)"/><path d="M718.26,513.62c-17.71-10-27.55-19.71-37.5-29.42-53.85-52.53-108.34-104.43-161.49-157.66-13.87-13.89-31.76-25.86-33.64-49.17-2.65-32.88,4.23-63.16,20.78-91.43,7.41-12.66,17.57-13.73,28.86-5.58A171.72,171.72,0,0,1,554,196.22c41.71,40.36,84.6,79.47,126.19,120,21.92,21.35,41.86,41.52,50.08,72.4,5,18.86,20,33.48,32.27,48.9,12.46,15.63,9.1,25.22-10.11,29.51-9.49,2.11-19.53,1.66-29.27,2.78-23.53,2.7-26.38,8.92-13.81,29.49C711.43,502.67,713.55,506,718.26,513.62Z" transform="translate(-462.54 -13.81)"/><path d="M1056,672c-34.15,22.55-64.73,42.72-95.29,62.93-9.58,6.33-14.91-1-21-6.31C903.19,697,869,662.93,835.08,628.68c-8.59-8.66-16.88-17.41-27.34-24.37-20.58-13.71-22.41-22.33-12.09-40.09,9.82-16.89,28.94-24.21,46.22-16.18a91.5,91.5,0,0,1,24.07,16.68c28.37,27.06,61.85,42.65,100.77,45.81C1007.13,613.8,1027,645.54,1056,672Z" transform="translate(-462.54 -13.81)"/></svg>